<svg width="1920" height="739" viewBox="0 0 1920 739" fill="none" xmlns="http://www.w3.org/2000/svg">
<path d="M1859.91 196.386H1920V601.368H1859.91V196.386Z" fill="#F2F6FE"/>
<path d="M1742.84 196.386H1802.94V601.368H1742.84V196.386Z" fill="#F2F6FE"/>
<path d="M1618.95 226.005C1618.95 215.752 1622.56 207.018 1629.77 199.803C1636.99 192.588 1645.72 188.981 1655.97 188.981C1666.22 188.981 1674.96 192.588 1682.17 199.803C1689.39 207.018 1693 215.752 1693 226.005C1693 236.257 1689.39 244.991 1682.17 252.206C1674.96 259.421 1666.22 263.028 1655.97 263.028C1645.72 263.028 1636.99 259.421 1629.77 252.206C1622.56 244.991 1618.95 236.257 1618.95 226.005ZM1625.78 306.318H1686.16V601.368H1625.78V306.318Z" fill="#F2F6FE"/>
<path d="M1317.33 196.386H1377.43V419.382H1397.65L1504.45 306.318H1582.48L1447.77 449.286L1594.44 601.368H1510.43L1392.24 479.475H1377.43V601.368H1317.33V196.386Z" fill="#F2F6FE"/>
<path d="M986.104 389.195C986.104 373.816 989.901 359.861 997.495 347.33C1005.28 334.799 1015.53 324.831 1028.25 317.426C1041.16 310.021 1055.4 306.319 1070.97 306.319H1244.13V366.411H1070.97C1064.14 366.411 1058.25 368.69 1053.32 373.246C1048.57 377.613 1046.2 382.929 1046.2 389.195V396.315C1046.2 402.77 1048.57 408.276 1053.32 412.833C1058.25 417.39 1064.14 419.668 1070.97 419.668H1178.63C1194.2 419.668 1208.34 423.466 1221.06 431.06C1233.97 438.465 1244.23 448.433 1251.82 460.964C1259.41 473.495 1263.21 487.45 1263.21 502.829V518.208C1263.21 533.398 1259.41 547.353 1251.82 560.074C1244.23 572.605 1233.97 582.668 1221.06 590.262C1208.34 597.667 1194.2 601.369 1178.63 601.369H999.489V541.277H1178.63C1185.46 541.277 1191.25 538.999 1196 534.442C1200.94 529.885 1203.4 524.379 1203.4 517.924V503.114C1203.4 496.469 1200.94 490.868 1196 486.311C1191.25 481.754 1185.46 479.476 1178.63 479.476H1070.97C1055.4 479.476 1041.16 475.774 1028.25 468.369C1015.53 460.774 1005.28 450.711 997.495 438.18C989.901 425.459 986.104 411.504 986.104 396.315V389.195Z" fill="#F2F6FE"/>
<path d="M661.137 366.126C661.137 349.608 667.023 335.558 678.795 323.976C690.756 312.205 705.091 306.319 721.799 306.319H825.751C845.307 306.319 863.154 311.16 879.293 320.844C895.431 330.337 908.247 343.153 917.74 359.291C927.423 375.43 932.265 393.277 932.265 412.833V601.369H872.173V413.688C872.173 400.397 867.616 389.1 858.502 379.797C849.579 370.493 838.661 365.842 825.751 365.842H721.23V601.369H661.137V366.126Z" fill="#F2F6FE"/>
<path d="M538.378 196.386H598.471V601.368H538.378V196.386Z" fill="#F2F6FE"/>
<g clip-path="url(#clip0_130_1342)">
<mask id="mask0_130_1342" style="mask-type:luminance" maskUnits="userSpaceOnUse" x="0" y="186" width="433" height="553">
<path d="M432.433 400.86V666.494C432.433 705.832 400.002 738.015 360.361 738.015C320.719 738.015 288.288 705.832 288.288 666.494V400.86C288.288 361.362 256.019 329.339 216.216 329.339C176.413 329.339 144.144 361.362 144.144 400.86V666.494C144.144 705.832 111.713 738.015 72.0721 738.015C32.4309 738.015 0 705.832 0 666.498V400.864C0 282.364 96.8034 186.301 216.216 186.301C335.629 186.301 432.433 282.364 432.433 400.864" fill="white"/>
</mask>
<g mask="url(#mask0_130_1342)">
<path d="M432.433 186.301H0V522.933L72.7552 561.669L141.412 537.204L216.472 600.404H288.459H432.433V186.301Z" fill="#F2F6FE"/>
</g>
<mask id="mask1_130_1342" style="mask-type:luminance" maskUnits="userSpaceOnUse" x="0" y="187" width="146" height="509">
<path d="M72.7552 187.562C112.772 187.562 145.51 217.174 145.51 253.37V629.398C145.51 665.593 112.772 695.205 72.7552 695.205C32.7383 695.205 0 665.593 0 629.398V253.37C0 217.174 32.7383 187.562 72.7552 187.562Z" fill="white"/>
</mask>
<g mask="url(#mask1_130_1342)">
<path d="M145.51 186.041H0V599.385H145.51V186.041Z" fill="#F2F6FE"/>
</g>
<mask id="mask2_130_1342" style="mask-type:luminance" maskUnits="userSpaceOnUse" x="144" y="0" width="145" height="144">
<path d="M216.216 0C256.019 0 288.288 32.0222 288.288 71.5208C288.288 111.019 256.019 143.042 216.216 143.042C176.413 143.042 144.144 111.019 144.144 71.5208C144.144 32.0222 176.413 0 216.216 0Z" fill="white"/>
</mask>
<g mask="url(#mask2_130_1342)">
<path d="M288.288 0H144.144V143.042H288.288V0Z" fill="#F2F6FE"/>
</g>
</g>
<defs>
<clipPath id="clip0_130_1342">
<rect width="432.433" height="738.018" fill="white"/>
</clipPath>
</defs>
</svg>
