<svg width="26" height="26" viewBox="0 0 26 26" fill="none" xmlns="http://www.w3.org/2000/svg">
<path d="M12.9996 2.16699C18.9828 2.16699 23.8329 7.01708 23.8329 13.0003C23.8329 18.9836 18.9828 23.8337 12.9996 23.8337C7.01634 23.8337 2.16626 18.9836 2.16626 13.0003C2.16626 7.01708 7.01634 2.16699 12.9996 2.16699ZM12.9996 6.50033C12.7123 6.50033 12.4367 6.61446 12.2336 6.81763C12.0304 7.02079 11.9163 7.29634 11.9163 7.58366V13.0003C11.9163 13.2876 12.0305 13.5631 12.2337 13.7662L15.4837 17.0162C15.688 17.2136 15.9616 17.3228 16.2457 17.3203C16.5297 17.3178 16.8015 17.2039 17.0023 17.003C17.2032 16.8022 17.3171 16.5305 17.3196 16.2464C17.322 15.9624 17.2128 15.6887 17.0155 15.4844L14.0829 12.5518V7.58366C14.0829 7.29634 13.9688 7.02079 13.7656 6.81763C13.5625 6.61446 13.2869 6.50033 12.9996 6.50033Z" fill="white"/>
</svg>
