<svg width="28" height="27" viewBox="0 0 28 27" fill="none" xmlns="http://www.w3.org/2000/svg">
<path d="M3.39221 1.27963C3.39221 1.27963 3.39656 1.27527 3.40092 1.27092C3.76213 0.909706 4.34095 0.914058 4.68911 1.25787L10.3989 6.96768C10.6557 7.22445 10.7297 7.62483 10.573 7.97299C9.26305 10.9062 7.16539 11.4807 11.6479 15.9589C16.1305 20.4371 16.7006 18.3438 19.6339 17.0295C19.982 16.8728 20.3824 16.9468 20.6392 17.2036L26.2445 22.8089C26.5883 23.1527 26.5927 23.7359 26.2315 24.0971C26.2315 24.0971 26.2271 24.1015 26.2228 24.1058C22.2842 28.0444 14.5507 25.5594 8.24469 19.2534C1.93865 12.9473 -0.546343 5.21818 3.39221 1.27963Z" fill="white" stroke="#231916" stroke-width="2" stroke-linejoin="bevel"/>
<g style="mix-blend-mode:darken">
<path d="M25.6456 12.3432C26.0199 9.55796 25.1495 6.63342 23.0127 4.49659C20.8758 2.35976 17.9513 1.48936 15.166 1.86363" stroke="#2962F6" stroke-width="2" stroke-miterlimit="10"/>
</g>
<g style="mix-blend-mode:darken">
<path d="M15.166 6.48866C16.7632 6.05781 18.5388 6.46255 19.7922 7.71592C21.0456 8.9693 21.4503 10.7449 21.0194 12.3377" stroke="#2962F6" stroke-width="2" stroke-miterlimit="10"/>
</g>
</svg>
