<svg width="37" height="37" viewBox="0 0 37 37" fill="none" xmlns="http://www.w3.org/2000/svg">
<path d="M19.5898 25.7567L25.756 19.5905C26.044 19.3006 26.2057 18.9086 26.2057 18.5C26.2057 18.0914 26.044 17.6994 25.756 17.4095L19.5898 11.2434C19.2998 10.9587 18.9091 10.7999 18.5027 10.8018C18.0963 10.8036 17.7071 10.9659 17.4197 11.2533C17.1323 11.5406 16.9701 11.9299 16.9682 12.3363C16.9664 12.7427 17.1251 13.1334 17.4099 13.4233L20.9448 16.9584H12.3332C11.9243 16.9584 11.5322 17.1208 11.243 17.4099C10.9539 17.699 10.7915 18.0912 10.7915 18.5C10.7915 18.9089 10.9539 19.3011 11.243 19.5902C11.5322 19.8793 11.9243 20.0417 12.3332 20.0417H20.9448L17.4098 23.5768C17.1237 23.8665 16.9639 24.2576 16.9652 24.6647C16.9664 25.0719 17.1288 25.462 17.4167 25.7499C17.7046 26.0378 18.0947 26.2001 18.5018 26.2013C18.909 26.2026 19.3001 26.0428 19.5898 25.7567Z" fill="white"/>
<path d="M33.9168 18.4999C33.9168 15.4508 33.0127 12.4701 31.3187 9.93488C29.6247 7.39963 27.2169 5.42363 24.3999 4.25678C21.5828 3.08993 18.4831 2.78463 15.4925 3.37949C12.502 3.97434 9.755 5.44264 7.59894 7.5987C5.44288 9.75476 3.97459 12.5017 3.37973 15.4923C2.78487 18.4828 3.09018 21.5826 4.25703 24.3996C5.42388 27.2167 7.39987 29.6244 9.93513 31.3184C12.4704 33.0124 15.451 33.9166 18.5002 33.9166C22.5875 33.912 26.5062 32.2863 29.3964 29.3961C32.2866 26.5059 33.9123 22.5873 33.9168 18.4999ZM17.4102 25.7566C17.267 25.6134 17.1534 25.4435 17.0759 25.2565C16.9984 25.0695 16.9586 24.869 16.9586 24.6665C16.9586 24.4641 16.9984 24.2636 17.0759 24.0766C17.1534 23.8896 17.267 23.7197 17.4102 23.5765L20.9452 20.0416H12.3335C11.9246 20.0416 11.5325 19.8792 11.2434 19.59C10.9543 19.3009 10.7918 18.9088 10.7918 18.4999C10.7918 18.0911 10.9543 17.6989 11.2434 17.4098C11.5325 17.1207 11.9246 16.9583 12.3335 16.9583H20.9452L17.4102 13.4232C17.1255 13.1332 16.9667 12.7426 16.9686 12.3362C16.9704 11.9297 17.1327 11.5405 17.42 11.2531C17.7074 10.9658 18.0967 10.8035 18.5031 10.8016C18.9095 10.7998 19.3002 10.9585 19.5901 11.2433L25.7563 17.4095C26.0443 17.6993 26.206 18.0914 26.206 18.5C26.206 18.9086 26.0443 19.3006 25.7563 19.5905L19.5901 25.7566C19.447 25.8997 19.2771 26.0133 19.0901 26.0908C18.9031 26.1683 18.7026 26.2082 18.5002 26.2082C18.2977 26.2082 18.0973 26.1683 17.9103 26.0908C17.7232 26.0133 17.5533 25.8997 17.4102 25.7566Z" fill="black"/>
</svg>
