<svg width="24" height="25" viewBox="0 0 24 25" fill="none" xmlns="http://www.w3.org/2000/svg">
<path d="M2.99989 17.7499V21.4999H6.74989L17.8099 10.4299L14.0599 6.67989L2.99989 17.7499ZM22.6099 18.8599L18.3599 23.1099L13.1599 17.9099L14.9299 16.1399L15.9299 17.1399L18.3999 14.6599L19.8199 16.0799L18.3599 17.4999L19.4199 18.4999L20.8399 17.0999L22.6099 18.8599ZM6.60989 11.3299L1.38989 6.13989L5.63989 1.88989L7.39989 3.65989L4.92989 6.13989L5.99989 7.19989L8.45989 4.71989L9.87989 6.13989L8.45989 7.54989L9.45989 8.54989L6.60989 11.3299ZM20.7099 7.49989C21.0999 7.10989 21.0999 6.49989 20.7099 6.08989L18.3699 3.78989C17.9999 3.39989 17.3499 3.39989 16.9599 3.78989L15.1199 5.61989L18.8699 9.36989L20.7099 7.49989Z" fill="white"/>
</svg>
