<svg width="28" height="28" viewBox="0 0 28 28" fill="none" xmlns="http://www.w3.org/2000/svg">
<path d="M13.9999 2.3335C9.48492 2.3335 5.83325 5.98516 5.83325 10.5002C5.83325 16.6252 13.9999 25.6668 13.9999 25.6668C13.9999 25.6668 22.1666 16.6252 22.1666 10.5002C22.1666 5.98516 18.5149 2.3335 13.9999 2.3335ZM13.9999 13.4168C13.2264 13.4168 12.4845 13.1095 11.9375 12.5626C11.3905 12.0156 11.0833 11.2737 11.0833 10.5002C11.0833 9.72661 11.3905 8.98475 11.9375 8.43777C12.4845 7.89079 13.2264 7.5835 13.9999 7.5835C14.7735 7.5835 15.5153 7.89079 16.0623 8.43777C16.6093 8.98475 16.9166 9.72661 16.9166 10.5002C16.9166 11.2737 16.6093 12.0156 16.0623 12.5626C15.5153 13.1095 14.7735 13.4168 13.9999 13.4168Z" fill="white"/>
</svg>
