<svg width="24" height="24" viewBox="0 0 24 24" fill="none" xmlns="http://www.w3.org/2000/svg">
<path d="M7.86857 12.3422H16.1314V11.2311H7.86857V12.3422ZM7.86857 15.4189H16.1314V14.3078H7.86857V15.4189ZM7.86857 18.4967H12.7029V17.3856H7.86857V18.4967ZM5.84571 22C5.32 22 4.88114 21.8289 4.52914 21.4867C4.17714 21.1444 4.00076 20.7174 4 20.2056V3.79444C4 3.28333 4.17638 2.85667 4.52914 2.51444C4.8819 2.17222 5.32114 2.00074 5.84686 2H14.8571L20 7V20.2056C20 20.7167 19.824 21.1437 19.472 21.4867C19.12 21.8296 18.6804 22.0007 18.1531 22H5.84571ZM14.2857 7.55556H18.8571L14.2857 3.11111V7.55556Z" fill="white"/>
</svg>
