<svg width="40" height="40" viewBox="0 0 40 40" fill="none" xmlns="http://www.w3.org/2000/svg">
<path d="M31.3312 24.3186L28.4374 27.3811L27.3499 26.2936C27.1154 26.059 26.7972 25.9273 26.4655 25.9273C26.1338 25.9273 25.8157 26.059 25.5812 26.2936C25.3466 26.5281 25.2148 26.8462 25.2148 27.178C25.2148 27.5097 25.3466 27.8278 25.5812 28.0623L27.5812 30.0561C27.6975 30.1731 27.8357 30.2659 27.9881 30.3292C28.1404 30.3924 28.3037 30.425 28.4687 30.4248C28.6386 30.4242 28.8065 30.389 28.9623 30.3213C29.1182 30.2536 29.2585 30.1549 29.3749 30.0311L33.1249 26.0373C33.3528 25.7961 33.4756 25.4743 33.4662 25.1426C33.4569 24.8109 33.3161 24.4965 33.0749 24.2686C32.8337 24.0407 32.5119 23.9179 32.1802 23.9273C31.8485 23.9366 31.5341 24.0774 31.3062 24.3186H31.3312Z" fill="white"/>
<path d="M32.2688 19.9123V7.4998C32.2668 7.19812 32.1558 6.90732 31.9563 6.68105L31.875 6.6123L25.525 0.356055L25.4312 0.281055L25.3375 0.212305C25.2951 0.18497 25.2513 0.159933 25.2063 0.137305L25.125 0.0935547L25 0.0498047H24.9125H24.725H4.53125C4.19973 0.0498047 3.88179 0.181501 3.64737 0.415921C3.41295 0.650342 3.28125 0.968284 3.28125 1.2998V38.7498C3.28125 39.0813 3.41295 39.3993 3.64737 39.6337C3.88179 39.8681 4.19973 39.9998 4.53125 39.9998H31.0188C31.3503 39.9998 31.6682 39.8681 31.9026 39.6337C32.1371 39.3993 32.2688 39.0813 32.2688 38.7498V33.6748C33.6397 33.1222 34.8141 32.1724 35.6411 30.9473C36.4682 29.7222 36.9101 28.2779 36.9101 26.7998C36.9101 25.3217 36.4682 23.8774 35.6411 22.6523C34.8141 21.4272 33.6397 20.4774 32.2688 19.9248V19.9123ZM25.8937 4.2248L27.9562 6.2498H25.8937V4.2248ZM29.7688 37.4998H5.78125V2.4998H23.3937V6.2498C23.3937 6.91285 23.6571 7.54873 24.126 8.01757C24.5948 8.48641 25.2307 8.7498 25.8937 8.7498H29.7688V19.3748H29.5062C28.38 19.3753 27.2688 19.6328 26.2572 20.1278C25.2456 20.6228 24.3603 21.3421 23.6687 22.2311C23.4425 22.0538 23.2067 21.889 22.9625 21.7373C22.7257 21.5898 22.4816 21.4542 22.2313 21.3311C23.195 20.4352 23.8667 19.2698 24.1586 17.9868C24.4506 16.7037 24.3493 15.3625 23.868 14.1378C23.3868 12.9132 22.5478 11.8618 21.4604 11.1208C20.3731 10.3798 19.0877 9.98351 17.7719 9.98351C16.456 9.98351 15.1707 10.3798 14.0833 11.1208C12.996 11.8618 12.157 12.9132 11.6757 14.1378C11.1944 15.3625 11.0932 16.7037 11.3851 17.9868C11.6771 19.2698 12.3487 20.4352 13.3125 21.3311C13.0625 21.4623 12.8187 21.5936 12.5812 21.7436C11.1639 22.6222 9.99529 23.8492 9.18675 25.3076C8.37822 26.766 7.95674 28.4073 7.9625 30.0748C7.9625 30.931 8.3 32.1685 9.93125 33.1998C11.725 34.3186 14.75 34.8811 17.775 34.8811C20.8 34.8811 23.7625 34.3311 25.5688 33.231L25.6688 33.1498C26.8244 33.8557 28.1521 34.2298 29.5062 34.2311H29.7688V37.4998ZM17.775 20.6248C16.974 20.6248 16.191 20.3873 15.5249 19.9423C14.8589 19.4972 14.3398 18.8647 14.0333 18.1247C13.7268 17.3846 13.6465 16.5703 13.8028 15.7847C13.9591 14.9991 14.3448 14.2774 14.9112 13.711C15.4776 13.1446 16.1993 12.7589 16.9849 12.6026C17.7705 12.4464 18.5848 12.5266 19.3249 12.8331C20.0649 13.1396 20.6974 13.6587 21.1425 14.3247C21.5875 14.9908 21.825 15.7738 21.825 16.5748C21.8233 17.6484 21.3961 18.6776 20.637 19.4368C19.8778 20.1959 18.8486 20.6231 17.775 20.6248ZM16.25 22.9123C16.7448 23.0354 17.2526 23.0983 17.7625 23.0998C18.2698 23.0969 18.7752 23.0361 19.2688 22.9186C20.1052 23.0933 20.9047 23.4127 21.6313 23.8623C21.9232 24.0473 22.1992 24.2563 22.4562 24.4873C22.0757 25.6448 21.9878 26.8785 22.2005 28.0782C22.4132 29.2779 22.9198 30.4062 23.675 31.3623C20.55 32.7873 13.8625 32.681 11.2375 31.0435C10.7125 30.7185 10.45 30.4186 10.45 30.0623C10.4475 28.3854 11.0229 26.7589 12.0793 25.4565C13.1357 24.1542 14.6086 23.2557 16.25 22.9123ZM29.5062 31.7061C28.5331 31.706 27.5819 31.4174 26.7729 30.8767C25.9639 30.3359 25.3334 29.5673 24.9613 28.6682C24.5892 27.769 24.4922 26.7797 24.6825 25.8254C24.8728 24.8711 25.3419 23.9947 26.0304 23.307C26.7189 22.6194 27.5959 22.1514 28.5505 21.9623C29.505 21.7732 30.4942 21.8715 31.3929 22.2448C32.2916 22.618 33.0594 23.2494 33.5991 24.0591C34.1388 24.8688 34.4262 25.8204 34.425 26.7936C34.4233 28.097 33.9044 29.3465 32.9821 30.2676C32.0599 31.1887 30.8097 31.7061 29.5062 31.7061Z" fill="white"/>
</svg>
