<svg width="48" height="48" viewBox="0 0 48 48" fill="none" xmlns="http://www.w3.org/2000/svg">
<g clip-path="url(#clip0_127_1037)">
<path d="M8.40015 4.7998H1.20015C0.537451 4.7998 0 5.33726 0 5.99995V13.2C0 13.8626 0.537451 14.4001 1.20015 14.4001C1.86284 14.4001 2.39985 13.8626 2.39985 13.2V7.2001H8.40015C9.06284 7.2001 9.59985 6.66265 9.59985 5.99995C9.59985 5.33726 9.06284 4.7998 8.40015 4.7998Z" fill="white"/>
<path d="M8.40015 40.7999H2.39985V34.8C2.39985 34.1373 1.86284 33.5999 1.20015 33.5999C0.537451 33.5999 0 34.1373 0 34.8V42C0 42.6627 0.537451 43.2001 1.20015 43.2001H8.40015C9.06284 43.2001 9.59985 42.6627 9.59985 42C9.59985 41.3373 9.06284 40.7999 8.40015 40.7999Z" fill="white"/>
<path d="M46.8 4.7998H39.6C38.9374 4.7998 38.3999 5.33726 38.3999 5.99995C38.3999 6.66265 38.9374 7.2001 39.6 7.2001H45.5999V13.2C45.5999 13.8626 46.1374 14.4001 46.8 14.4001C47.4627 14.4001 48.0002 13.8626 48.0002 13.2V5.99995C48.0002 5.33726 47.4627 4.7998 46.8 4.7998Z" fill="white"/>
<path d="M46.8 33.5999C46.1374 33.5999 45.5999 34.1373 45.5999 34.8V40.7999H39.6C38.9374 40.7999 38.3999 41.3373 38.3999 42C38.3999 42.6627 38.9374 43.2001 39.6 43.2001H46.8C47.4627 43.2001 48.0002 42.6627 48.0002 42V34.8C48.0002 34.1373 47.4627 33.5999 46.8 33.5999Z" fill="white"/>
<path d="M8.40034 11.9998C7.73765 11.9998 7.2002 12.5372 7.2002 13.1999V34.7999C7.2002 35.4626 7.73765 36 8.40034 36C9.06304 36 9.60005 35.4626 9.60005 34.7999V13.1999C9.60005 12.5372 9.06304 11.9998 8.40034 11.9998Z" fill="white"/>
<path d="M13.1997 11.9998H15.6C16.2627 11.9998 16.7997 12.5372 16.7997 13.1999V34.7999C16.7997 35.4626 16.2627 36 15.6 36H13.1997C12.537 36 12 35.4626 12 34.7999V13.1999C12 12.5372 12.537 11.9998 13.1997 11.9998Z" fill="white"/>
<path d="M20.3999 11.9998C19.7372 11.9998 19.2002 12.5372 19.2002 13.1999V34.7999C19.2002 35.4626 19.7372 36 20.3999 36C21.0626 36 21.6 35.4626 21.6 34.7999V13.1999C21.6 12.5372 21.0626 11.9998 20.3999 11.9998Z" fill="white"/>
<path d="M25.2001 11.9998H27.6C28.2627 11.9998 28.8001 12.5372 28.8001 13.1999V34.7999C28.8001 35.4626 28.2627 36 27.6 36H25.2001C24.5375 36 24 35.4626 24 34.7999V13.1999C24 12.5372 24.5375 11.9998 25.2001 11.9998Z" fill="white"/>
<path d="M32.3999 11.9998C31.7372 11.9998 31.1997 12.5372 31.1997 13.1999V34.7999C31.1997 35.4626 31.7372 36 32.3999 36C33.0625 36 33.6 35.4626 33.6 34.7999V13.1999C33.6 12.5372 33.0625 11.9998 32.3999 11.9998Z" fill="white"/>
<path d="M37.2001 11.9998H39.6C40.2627 11.9998 40.8001 12.5372 40.8001 13.1999V34.7999C40.8001 35.4626 40.2627 36 39.6 36H37.2001C36.5375 36 36 35.4626 36 34.7999V13.1999C36 12.5372 36.5375 11.9998 37.2001 11.9998Z" fill="white"/>
</g>
<defs>
<clipPath id="clip0_127_1037">
<rect width="48" height="48" fill="white"/>
</clipPath>
</defs>
</svg>
