<svg width="48" height="48" viewBox="0 0 48 48" fill="none" xmlns="http://www.w3.org/2000/svg">
<g clip-path="url(#clip0_127_956)">
<path d="M21.5999 17.5996V24.406L18.3998 17.5996H15.9998V30.3993H18.3998V23.5967L21.5999 30.3993H23.9999V17.5996H21.5999Z" fill="white"/>
<path d="M33.5999 19.9996V17.5996H26.3999V30.3993H28.7999V24.7996H33.5999V22.3996H28.7999V19.9996H33.5999Z" fill="white"/>
<path d="M30.3999 14.4V8.00021C30.3999 6.24053 28.9594 4.80005 27.2002 4.80005H8.00021C6.24053 4.80005 4.80005 6.24053 4.80005 8.00021V39.9994C4.80005 41.7591 6.24053 43.2001 8.00021 43.2001H27.2002C28.9594 43.2001 30.3999 41.7591 30.3999 39.9994V33.6H8.00021V8.00021H27.2002V14.4H30.3999ZM15.9999 36.7997H19.2C20.0847 36.7997 20.7999 37.5149 20.7999 38.4001C20.7999 39.2842 20.0847 39.9994 19.2 39.9994H15.9999C15.1157 39.9994 14.4 39.2842 14.4 38.4001C14.4 37.5149 15.1157 36.7997 15.9999 36.7997Z" fill="white"/>
<path d="M39.9999 14.4C39.9999 10.8658 37.1343 8.00021 33.6001 8.00021V4.80005C38.9017 4.80005 43.2001 9.09845 43.2001 14.4H39.9999Z" fill="white"/>
<path d="M36.8003 14.4001C36.8003 12.6328 35.3675 11.2 33.6001 11.2V14.4001H36.8003Z" fill="white"/>
<path d="M39.6 27.9993C38.9376 27.9993 38.4 27.4622 38.4 26.7993V21.1996C38.4 20.5367 38.9376 19.9996 39.6 19.9996C40.2624 19.9996 40.8 20.5367 40.8 21.1996H43.2C43.2 19.2119 41.5891 17.5996 39.6 17.5996C37.6123 17.5996 36 19.2119 36 21.1996V26.7998C36 28.7874 37.6109 30.3998 39.6 30.3998C41.5877 30.3998 43.2 28.7874 43.2 26.7998H40.8C40.8 27.4622 40.2624 27.9993 39.6 27.9993Z" fill="white"/>
</g>
<defs>
<clipPath id="clip0_127_956">
<rect width="48" height="48" fill="white"/>
</clipPath>
</defs>
</svg>
