<svg width="48" height="48" viewBox="0 0 48 48" fill="none" xmlns="http://www.w3.org/2000/svg">
<g clip-path="url(#clip0_127_932)">
<path d="M38.7692 42.4617H9.23077C4.13527 42.4555 0.00611538 38.3264 0 33.2309V14.7693C0.00611538 9.67384 4.13527 5.54469 9.23077 5.53857H38.7692C43.8647 5.54469 47.9939 9.67384 48 14.7693V33.2309C47.9939 38.3264 43.8647 42.4555 38.7692 42.4617ZM9.23077 9.23088C6.17192 9.23088 3.69231 11.7105 3.69231 14.7693V33.2309C3.69231 36.2897 6.17192 38.7693 9.23077 38.7693H38.7692C41.8281 38.7693 44.3077 36.2897 44.3077 33.2309V14.7693C44.3077 11.7105 41.8281 9.23088 38.7692 9.23088H9.23077Z" fill="white"/>
<path d="M14.7691 35.0769H11.0768C9.03764 35.0769 7.38452 33.4238 7.38452 31.3846V27.6923C7.38452 25.6531 9.03764 24 11.0768 24H14.7691C16.8083 24 18.4614 25.6531 18.4614 27.6923V31.3846C18.4614 33.4238 16.8083 35.0769 14.7691 35.0769ZM11.0768 27.6923V31.3846H14.7691V27.6923H11.0768Z" fill="white"/>
<path d="M46.1538 20.3078H1.84615C0.8265 20.3078 0 19.4813 0 18.4616C0 17.442 0.8265 16.6155 1.84615 16.6155H46.1538C47.1735 16.6155 48 17.442 48 18.4616C48 19.4813 47.1735 20.3078 46.1538 20.3078Z" fill="white"/>
<path d="M27.6923 35.0768H24C22.9803 35.0768 22.1538 34.2503 22.1538 33.2307C22.1538 32.211 22.9803 31.3845 24 31.3845H27.6923C28.7119 31.3845 29.5384 32.211 29.5384 33.2307C29.5384 34.2503 28.7119 35.0768 27.6923 35.0768Z" fill="white"/>
<path d="M38.7692 35.0768H35.0769C34.0572 35.0768 33.2307 34.2503 33.2307 33.2307C33.2307 32.211 34.0572 31.3845 35.0769 31.3845H38.7692C39.7888 31.3845 40.6153 32.211 40.6153 33.2307C40.6153 34.2503 39.7888 35.0768 38.7692 35.0768Z" fill="white"/>
</g>
<defs>
<clipPath id="clip0_127_932">
<rect width="48" height="48" fill="white"/>
</clipPath>
</defs>
</svg>
