<svg width="48" height="48" viewBox="0 0 48 48" fill="none" xmlns="http://www.w3.org/2000/svg">
<path d="M38 2H10C7.87827 2 5.84344 2.84285 4.34315 4.34315C2.84285 5.84344 2 7.87827 2 10V24C2 24.5304 2.21071 25.0391 2.58579 25.4142C2.96086 25.7893 3.46957 26 4 26H14V44C13.9991 44.3825 14.1078 44.7573 14.3134 45.0799C14.519 45.4025 14.8128 45.6593 15.16 45.82C15.508 45.9802 15.8946 46.0371 16.274 45.9839C16.6534 45.9307 17.0095 45.7697 17.3 45.52L23 40.64L28.7 45.52C29.0623 45.8299 29.5233 46.0001 30 46.0001C30.4767 46.0001 30.9377 45.8299 31.3 45.52L37 40.64L42.7 45.52C43.0623 45.8298 43.5233 46 44 46C44.2893 45.998 44.5752 45.9367 44.84 45.82C45.1872 45.6593 45.481 45.4025 45.6866 45.0799C45.8922 44.7573 46.0009 44.3825 46 44V10C46 7.87827 45.1571 5.84344 43.6569 4.34315C42.1566 2.84285 40.1217 2 38 2ZM6 22V10C6 8.93913 6.42143 7.92172 7.17157 7.17157C7.92172 6.42143 8.93913 6 10 6C11.0609 6 12.0783 6.42143 12.8284 7.17157C13.5786 7.92172 14 8.93913 14 10V22H6ZM42 39.66L38.3 36.48C37.9377 36.1701 37.4767 35.9999 37 35.9999C36.5233 35.9999 36.0623 36.1701 35.7 36.48L30 41.36L24.3 36.48C23.9377 36.1701 23.4767 35.9999 23 35.9999C22.5233 35.9999 22.0623 36.1701 21.7 36.48L18 39.66V10C17.9975 8.59496 17.625 7.21536 16.92 6H38C39.0609 6 40.0783 6.42143 40.8284 7.17157C41.5786 7.92172 42 8.93913 42 10V39.66ZM38 12C38 12.5304 37.7893 13.0391 37.4142 13.4142C37.0391 13.7893 36.5304 14 36 14H24C23.4696 14 22.9609 13.7893 22.5858 13.4142C22.2107 13.0391 22 12.5304 22 12C22 11.4696 22.2107 10.9609 22.5858 10.5858C22.9609 10.2107 23.4696 10 24 10H36C36.5304 10 37.0391 10.2107 37.4142 10.5858C37.7893 10.9609 38 11.4696 38 12ZM38 20C38 20.5304 37.7893 21.0391 37.4142 21.4142C37.0391 21.7893 36.5304 22 36 22H24C23.4696 22 22.9609 21.7893 22.5858 21.4142C22.2107 21.0391 22 20.5304 22 20C22 19.4696 22.2107 18.9609 22.5858 18.5858C22.9609 18.2107 23.4696 18 24 18H36C36.5304 18 37.0391 18.2107 37.4142 18.5858C37.7893 18.9609 38 19.4696 38 20ZM38 28C38 28.5304 37.7893 29.0391 37.4142 29.4142C37.0391 29.7893 36.5304 30 36 30H24C23.4696 30 22.9609 29.7893 22.5858 29.4142C22.2107 29.0391 22 28.5304 22 28C22 27.4696 22.2107 26.9609 22.5858 26.5858C22.9609 26.2107 23.4696 26 24 26H36C36.5304 26 37.0391 26.2107 37.4142 26.5858C37.7893 26.9609 38 27.4696 38 28Z" fill="white"/>
</svg>
