<svg width="49" height="49" viewBox="0 0 49 49" fill="none" xmlns="http://www.w3.org/2000/svg">
<g clip-path="url(#clip0_127_1092)">
<path d="M41.6596 27.7004L30.7984 24.5971V14.7998C30.7984 11.4871 28.111 8.7998 24.7984 8.7998C21.4876 8.7998 18.8001 11.4871 18.8001 14.7998V32.075L17.038 30.3158C14.6986 27.9721 10.8976 27.9758 8.55339 30.3158C6.21397 32.6594 6.21397 36.4573 8.55339 38.7998L18.5542 48.8H41.5053L44.7201 32.7218C45.1515 30.5654 43.7746 28.3064 41.6596 27.7004ZM38.2257 44.7998H20.2138L11.3818 35.9714C10.6043 35.1944 10.6043 33.9254 11.3818 33.1435C12.163 32.3618 13.4326 32.3641 14.2138 33.1435L22.8003 41.7295V14.7998C22.8003 13.694 23.6925 12.8 24.7984 12.8C25.9018 12.8 26.7982 13.6946 26.7982 14.7998V27.6158L40.8592 31.6316L38.2257 44.7998Z" fill="white"/>
<path d="M24.8001 0.800049C17.0697 0.800049 10.8003 7.0677 10.8003 14.8016C10.8003 16.7 11.1824 18.5072 11.8665 20.1572L15.5655 18.6241C15.0753 17.4463 14.7999 16.157 14.7999 14.8015C14.7999 9.2761 19.2765 4.79954 24.8001 4.79954C30.3237 4.79954 34.8003 9.2761 34.8003 14.8015C34.8003 16.1575 34.5249 17.4463 34.0365 18.6241L37.7336 20.1572C38.4188 18.5066 38.7998 16.7 38.7998 14.8016C38.7999 7.0677 32.5329 0.800049 24.8001 0.800049Z" fill="white"/>
<path d="M8.17098 7.9112L4.47559 6.38062C3.3998 8.9762 2.7998 11.816 2.7998 14.8004C2.7998 17.7824 3.3998 20.6222 4.47559 23.216L8.17098 21.6866C7.29195 19.5632 6.8 17.2387 6.8 14.7998C6.8 12.3585 7.29195 10.0346 8.17098 7.9112Z" fill="white"/>
<path d="M45.1246 6.37988L41.4292 7.9093C42.31 10.0321 42.8002 12.3583 42.8002 14.7997C42.8002 17.2387 42.31 19.5649 41.4292 21.6864L45.1246 23.2176C46.2004 20.6238 46.8004 17.7822 46.8004 14.7996C46.8004 11.8153 46.2004 8.97371 45.1246 6.37988Z" fill="white"/>
</g>
<defs>
<clipPath id="clip0_127_1092">
<rect width="48" height="48" fill="white" transform="translate(0.799805 0.800049)"/>
</clipPath>
</defs>
</svg>
