<svg width="131" height="42" viewBox="0 0 131 42" fill="none" xmlns="http://www.w3.org/2000/svg">
<g clip-path="url(#clip0_2001_247)">
<mask id="mask0_2001_247" style="mask-type:luminance" maskUnits="userSpaceOnUse" x="0" y="12" width="30" height="39">
<path d="M29.5045 27.3504V45.4743C29.5045 48.1583 27.2918 50.3541 24.5871 50.3541C21.8824 50.3541 19.6697 48.1583 19.6697 45.4743V27.3504C19.6697 24.6554 17.468 22.4706 14.7523 22.4706C12.0365 22.4706 9.83484 24.6554 9.83484 27.3504V45.4743C9.83484 48.1583 7.62211 50.3541 4.91742 50.3541C2.21273 50.3541 0 48.1583 0 45.4746V27.3506C0 19.2655 6.60482 12.7112 14.7523 12.7112C22.8997 12.7112 29.5045 19.2655 29.5045 27.3506" fill="white"/>
</mask>
<g mask="url(#mask0_2001_247)">
<path d="M29.5045 12.7112H0V35.6793L4.96403 38.3222L9.64839 36.653L14.7697 40.9651H19.6813H29.5045V12.7112Z" fill="url(#paint0_linear_2001_247)"/>
</g>
<mask id="mask1_2001_247" style="mask-type:luminance" maskUnits="userSpaceOnUse" x="0" y="12" width="10" height="36">
<path d="M4.96403 12.7972C7.69435 12.7972 9.92806 14.8176 9.92806 17.2872V42.9433C9.92806 45.4129 7.69435 47.4332 4.96403 47.4332C2.2337 47.4332 0 45.4129 0 42.9433V17.2872C0 14.8176 2.2337 12.7972 4.96403 12.7972Z" fill="white"/>
</mask>
<g mask="url(#mask1_2001_247)">
<path d="M25.237 12.5333H0V84.2226H25.237V12.5333Z" fill="#FF9E01"/>
</g>
<mask id="mask2_2001_247" style="mask-type:luminance" maskUnits="userSpaceOnUse" x="9" y="0" width="11" height="10">
<path d="M14.7524 0C17.4681 0 19.6698 2.18484 19.6698 4.8798C19.6698 7.57476 17.4681 9.75961 14.7524 9.75961C12.0366 9.75961 9.83496 7.57476 9.83496 4.8798C9.83496 2.18484 12.0366 0 14.7524 0Z" fill="white"/>
</mask>
<g mask="url(#mask2_2001_247)">
<path d="M19.6698 0H9.83496V9.75961H19.6698V0Z" fill="url(#paint1_linear_2001_247)"/>
</g>
</g>
<path d="M126.9 13.3992H131V41.0308H126.9V13.3992Z" fill="#313131"/>
<path d="M118.913 13.3992H123.013V41.0308H118.913V13.3992Z" fill="#313131"/>
<path d="M110.459 15.42C110.459 14.7205 110.705 14.1246 111.197 13.6323C111.69 13.1401 112.286 12.8939 112.985 12.8939C113.685 12.8939 114.281 13.1401 114.773 13.6323C115.265 14.1246 115.511 14.7205 115.511 15.42C115.511 16.1196 115.265 16.7155 114.773 17.2077C114.281 17.7 113.685 17.9461 112.985 17.9461C112.286 17.9461 111.69 17.7 111.197 17.2077C110.705 16.7155 110.459 16.1196 110.459 15.42ZM110.925 20.8997H115.045V41.0307H110.925V20.8997Z" fill="#313131"/>
<path d="M89.8804 13.3992H93.9804V28.614H95.3601L102.647 20.8997H107.971L98.78 30.6543L108.787 41.0308H103.055L94.9909 32.7141H93.9804V41.0308H89.8804V13.3992Z" fill="#313131"/>
<path d="M67.2808 26.5543C67.2808 25.505 67.5398 24.5529 68.058 23.6979C68.5891 22.8429 69.2887 22.1628 70.1566 21.6576C71.0375 21.1524 72.0091 20.8998 73.0714 20.8998H84.8857V24.9998H73.0714C72.605 24.9998 72.2034 25.1553 71.8666 25.4662C71.5427 25.7641 71.3808 26.1269 71.3808 26.5543V27.0401C71.3808 27.4806 71.5427 27.8563 71.8666 28.1672C72.2034 28.4781 72.605 28.6335 73.0714 28.6335H80.4165C81.4787 28.6335 82.4438 28.8926 83.3118 29.4108C84.1926 29.916 84.8922 30.5961 85.4104 31.4511C85.9285 32.3061 86.1876 33.2582 86.1876 34.3075V35.3568C86.1876 36.3932 85.9285 37.3453 85.4104 38.2133C84.8922 39.0682 84.1926 39.7548 83.3118 40.273C82.4438 40.7782 81.4787 41.0308 80.4165 41.0308H68.194V36.9308H80.4165C80.8828 36.9308 81.2779 36.7753 81.6018 36.4644C81.9386 36.1535 82.107 35.7778 82.107 35.3374V34.327C82.107 33.8735 81.9386 33.4914 81.6018 33.1805C81.2779 32.8696 80.8828 32.7141 80.4165 32.7141H73.0714C72.0091 32.7141 71.0375 32.4615 70.1566 31.9563C69.2887 31.4381 68.5891 30.7516 68.058 29.8966C67.5398 29.0286 67.2808 28.0765 67.2808 27.0401V26.5543Z" fill="#313131"/>
<path d="M45.1084 24.9804C45.1084 23.8534 45.51 22.8947 46.3132 22.1045C47.1293 21.3014 48.1073 20.8998 49.2473 20.8998H56.3398C57.6741 20.8998 58.8918 21.2301 59.9929 21.8908C61.0941 22.5385 61.9685 23.4129 62.6162 24.514C63.2769 25.6152 63.6072 26.8329 63.6072 28.1672V41.0308H59.5071V28.2255C59.5071 27.3187 59.1962 26.5479 58.5744 25.9131C57.9656 25.2783 57.2207 24.961 56.3398 24.961H49.2084V41.0308H45.1084V24.9804Z" fill="#313131"/>
<path d="M36.7329 13.3992H40.833V41.0308H36.7329V13.3992Z" fill="#313131"/>
<defs>
<linearGradient id="paint0_linear_2001_247" x1="10.0953" y1="59.9365" x2="20.019" y2="-1.52828" gradientUnits="userSpaceOnUse">
<stop stop-color="#0000FF"/>
<stop offset="1" stop-color="#00D9FF"/>
</linearGradient>
<linearGradient id="paint1_linear_2001_247" x1="-7.38429" y1="50.5714" x2="22.9459" y2="-13.0015" gradientUnits="userSpaceOnUse">
<stop offset="0.197115" stop-color="#FF0000"/>
<stop offset="1" stop-color="#FFFF00"/>
</linearGradient>
<clipPath id="clip0_2001_247">
<rect width="29.5045" height="40.9129" fill="white"/>
</clipPath>
</defs>
</svg>
