<svg width="27" height="27" viewBox="0 0 27 27" fill="none" xmlns="http://www.w3.org/2000/svg">
<path d="M14.7984 12.8886C13.9279 12.6752 12.9964 13.0613 12.4713 13.7896C11.174 15.5815 9.90717 18.9891 10.7642 21.2179C11.0317 21.9157 11.8549 22.4543 12.6915 22.5728C13.1623 22.6406 13.745 22.4678 14.1921 22.3154C14.8187 22.1054 15.3099 21.7633 15.5233 21.516C15.7367 21.2687 15.9772 20.8589 16.2143 20.7742C16.4548 20.6963 16.8951 20.8792 17.2135 20.9435C17.5319 21.0079 18.1315 20.9808 18.7548 20.764C19.2053 20.6082 19.7709 20.3914 20.1029 20.0527C20.6957 19.4497 21.0005 18.525 20.8041 17.8035C20.2079 15.595 17.2271 13.4847 14.795 12.8886H14.7984Z" fill="white"/>
<path d="M4.37111 14.2192C3.77834 15.1711 4.4795 16.3261 5.18406 16.9866C5.92587 17.681 6.61688 18.0469 7.63984 17.9046C8.55779 17.7793 9.1167 17.1086 8.79829 16.1466C8.53408 15.3506 7.65 14.5613 6.97932 14.0837C6.28832 13.5926 5.07567 13.3352 4.37111 14.2192Z" fill="white"/>
<path d="M21.7581 8.45823C22.8014 8.86809 22.9233 10.2162 22.7506 11.1647C22.5677 12.1639 22.2289 12.8685 21.3211 13.363C20.5082 13.8068 19.658 13.6001 19.343 12.6381C19.0821 11.8421 19.3226 10.6803 19.5801 9.89783C19.8443 9.09165 20.664 8.16354 21.7581 8.45823Z" fill="white"/>
<path d="M7.44494 7.64861C6.41521 8.59027 7.03847 10.1112 7.47204 10.914C7.99707 11.8861 8.86761 13.0073 10.0904 12.9802C12.5259 12.926 11.1642 8.97305 10.2124 7.93654C9.90412 7.6012 9.45699 7.26585 9.00987 7.18455C8.45775 7.08293 8.29177 7.12697 7.44494 7.64861Z" fill="white"/>
<path d="M14.1018 5.17415C12.8316 5.83128 12.8858 6.97619 13.1737 8.13802C13.4006 9.04582 13.7766 10.3364 14.6268 10.8479C15.5786 11.4203 16.7608 10.814 17.1266 9.81473C17.4992 8.79516 17.401 7.49783 16.9979 6.50874C16.6422 5.63143 15.643 4.60847 14.0984 5.17076L14.1018 5.17415Z" fill="white"/>
<path d="M19.5269 24.918C19.2119 25.0298 18.8935 25.1314 18.5785 25.233L18.4803 25.2669C18.1585 25.3719 17.8435 25.4803 17.5284 25.5921C16.4581 25.9647 15.3504 26.3508 14.1174 26.4592C10.869 26.7505 8.376 25.4803 6.70268 22.6892C6.15732 21.778 5.37486 21.1175 4.23673 20.6195C1.45238 19.3933 -0.200611 16.9646 0.0195628 14.431C0.219413 12.1547 1.31012 10.5796 3.18329 9.83102C3.00715 8.97743 3.00715 7.89351 3.00715 7.87657C3.14264 5.92889 4.41965 4.02184 6.18103 3.1276C7.43094 2.49079 8.75198 2.43659 9.96124 2.95484C10.1442 2.71434 10.405 2.4095 10.7776 2.01319L10.7911 1.99626C12.5424 0.112926 15.4486 -0.00563473 17.6978 1.71511C17.8739 1.8506 18.4193 2.45014 18.4227 2.45353C18.592 2.64322 18.7275 2.79565 18.8325 2.92776C21.7388 2.93792 23.1716 3.58827 24.8043 5.58677C27.0331 8.31353 26.4641 12.0666 25.8408 14.6511C25.7528 15.0102 25.6579 15.3692 25.5631 15.7283C25.3531 16.5277 25.1329 17.3576 25.0211 18.1604C24.7433 20.1521 23.8864 21.9304 22.6127 23.1735C21.7117 24.0475 20.6278 24.5285 19.5269 24.9146V24.918ZM4.7787 19.3866C6.1641 19.9963 7.17012 20.8499 7.85435 21.9982C9.27701 24.376 11.2281 25.3651 13.9921 25.1178C15.0625 25.023 16.0448 24.6809 17.0813 24.3184C17.4065 24.2067 17.7317 24.0915 18.0636 23.9865L18.1619 23.9526C19.4863 23.5258 20.7396 23.1194 21.6711 22.2116C22.7347 21.1784 23.4494 19.6745 23.6865 17.9775C23.8085 17.0934 24.0388 16.2262 24.2624 15.3862C24.3538 15.0339 24.4487 14.685 24.5333 14.3361C25.0889 12.0294 25.6139 8.69969 23.7644 6.43698C22.4264 4.80092 21.4272 4.23186 18.4667 4.27589C18.1686 4.27928 17.9078 4.08959 17.8164 3.80844C17.6267 3.55779 17.0271 2.91421 16.8713 2.77533C15.4215 1.67446 13.213 1.36959 11.7768 2.9142L11.7599 2.93113C11.2789 3.446 11.0282 3.76102 10.9266 3.91345C10.9198 4.02184 10.886 4.13023 10.825 4.22846C10.6285 4.54009 10.2119 4.63494 9.90027 4.43847C8.6673 3.66617 7.53256 3.9507 6.79413 4.32669C5.46632 5.00076 4.46368 6.49117 4.35529 7.95448C4.35529 8.23223 4.45352 9.39408 4.55514 9.80055C4.62627 9.87846 4.67708 9.9733 4.70757 10.0783C4.80241 10.4374 4.58901 10.8066 4.22996 10.9014C2.47535 11.3689 1.53707 12.5612 1.36431 14.5495C1.15769 16.9172 3.07489 18.6346 4.78208 19.3866H4.7787Z" fill="white"/>
</svg>
