<svg width="131" height="42" viewBox="0 0 131 42" fill="none" xmlns="http://www.w3.org/2000/svg">
<g clip-path="url(#clip0_14_5586)">
<mask id="mask0_14_5586" style="mask-type:luminance" maskUnits="userSpaceOnUse" x="0" y="12" width="30" height="39">
<path d="M29.5045 27.3501V45.4741C29.5045 48.1581 27.2918 50.3539 24.5871 50.3539C21.8824 50.3539 19.6697 48.1581 19.6697 45.4741V27.3501C19.6697 24.6552 17.468 22.4703 14.7523 22.4703C12.0365 22.4703 9.83484 24.6552 9.83484 27.3501V45.4741C9.83484 48.1581 7.62211 50.3539 4.91742 50.3539C2.21273 50.3539 0 48.1581 0 45.4743V27.3504C0 19.2652 6.60482 12.7109 14.7523 12.7109C22.8997 12.7109 29.5045 19.2652 29.5045 27.3504" fill="white"/>
</mask>
<g mask="url(#mask0_14_5586)">
<path d="M29.5045 12.7109H0V35.679L4.96403 38.3219L9.64839 36.6527L14.7697 40.9648H19.6813H29.5045V12.7109Z" fill="url(#paint0_linear_14_5586)"/>
</g>
<mask id="mask1_14_5586" style="mask-type:luminance" maskUnits="userSpaceOnUse" x="0" y="12" width="10" height="36">
<path d="M4.96403 12.7974C7.69435 12.7974 9.92806 14.8178 9.92806 17.2873V42.9434C9.92806 45.413 7.69435 47.4334 4.96403 47.4334C2.2337 47.4334 0 45.413 0 42.9434V17.2873C0 14.8178 2.2337 12.7974 4.96403 12.7974Z" fill="white"/>
</mask>
<g mask="url(#mask1_14_5586)">
<path d="M25.237 12.5337H0V84.223H25.237V12.5337Z" fill="#FF9E01"/>
</g>
<mask id="mask2_14_5586" style="mask-type:luminance" maskUnits="userSpaceOnUse" x="9" y="0" width="11" height="10">
<path d="M14.7523 0C17.468 0 19.6697 2.18484 19.6697 4.8798C19.6697 7.57476 17.468 9.75961 14.7523 9.75961C12.0365 9.75961 9.83484 7.57476 9.83484 4.8798C9.83484 2.18484 12.0365 0 14.7523 0Z" fill="white"/>
</mask>
<g mask="url(#mask2_14_5586)">
<path d="M19.6697 0H9.83484V9.75961H19.6697V0Z" fill="url(#paint1_linear_14_5586)"/>
</g>
</g>
<path d="M126.9 13.3994H131V41.031H126.9V13.3994Z" fill="white"/>
<path d="M118.913 13.3994H123.013V41.031H118.913V13.3994Z" fill="white"/>
<path d="M110.459 15.4201C110.459 14.7206 110.705 14.1247 111.198 13.6324C111.69 13.1402 112.286 12.894 112.985 12.894C113.685 12.894 114.281 13.1402 114.773 13.6324C115.265 14.1247 115.511 14.7206 115.511 15.4201C115.511 16.1197 115.265 16.7156 114.773 17.2078C114.281 17.7001 113.685 17.9462 112.985 17.9462C112.286 17.9462 111.69 17.7001 111.198 17.2078C110.705 16.7156 110.459 16.1197 110.459 15.4201ZM110.926 20.8998H115.045V41.0309H110.926V20.8998Z" fill="white"/>
<path d="M89.8805 13.3994H93.9805V28.6143H95.3602L102.647 20.9H107.971L98.7801 30.6546L108.787 41.031H103.055L94.991 32.7143H93.9805V41.031H89.8805V13.3994Z" fill="white"/>
<path d="M67.2809 26.5545C67.2809 25.5052 67.54 24.553 68.0581 23.698C68.5893 22.8431 69.2888 22.163 70.1567 21.6577C71.0376 21.1525 72.0092 20.8999 73.0715 20.8999H84.8858V25H73.0715C72.6051 25 72.2035 25.1554 71.8667 25.4663C71.5429 25.7643 71.3809 26.127 71.3809 26.5545V27.0403C71.3809 27.4807 71.5429 27.8564 71.8667 28.1673C72.2035 28.4782 72.6051 28.6336 73.0715 28.6336H80.4166C81.4788 28.6336 82.4439 28.8927 83.3119 29.4109C84.1928 29.9161 84.8923 30.5962 85.4105 31.4512C85.9287 32.3062 86.1877 33.2583 86.1877 34.3076V35.3569C86.1877 36.3933 85.9287 37.3454 85.4105 38.2134C84.8923 39.0684 84.1928 39.7549 83.3119 40.2731C82.4439 40.7783 81.4788 41.0309 80.4166 41.0309H68.1942V36.9309H80.4166C80.8829 36.9309 81.278 36.7754 81.6019 36.4645C81.9387 36.1536 82.1071 35.778 82.1071 35.3375V34.3271C82.1071 33.8737 81.9387 33.4915 81.6019 33.1806C81.278 32.8697 80.8829 32.7143 80.4166 32.7143H73.0715C72.0092 32.7143 71.0376 32.4616 70.1567 31.9564C69.2888 31.4383 68.5893 30.7517 68.0581 29.8967C67.54 29.0287 67.2809 28.0766 67.2809 27.0403V26.5545Z" fill="white"/>
<path d="M45.1088 24.9805C45.1088 23.8535 45.5103 22.8949 46.3135 22.1047C47.1296 21.3015 48.1077 20.8999 49.2477 20.8999H56.3402C57.6745 20.8999 58.8922 21.2302 59.9933 21.8909C61.0944 22.5386 61.9688 23.413 62.6166 24.5142C63.2772 25.6153 63.6076 26.833 63.6076 28.1673V41.0309H59.5075V28.2256C59.5075 27.3188 59.1966 26.548 58.5748 25.9132C57.9659 25.2785 57.2211 24.9611 56.3402 24.9611H49.2088V41.0309H45.1088V24.9805Z" fill="white"/>
<path d="M36.7329 13.3994H40.833V41.031H36.7329V13.3994Z" fill="white"/>
<defs>
<linearGradient id="paint0_linear_14_5586" x1="10.0953" y1="59.9362" x2="20.019" y2="-1.52852" gradientUnits="userSpaceOnUse">
<stop stop-color="#0000FF"/>
<stop offset="1" stop-color="#00D9FF"/>
</linearGradient>
<linearGradient id="paint1_linear_14_5586" x1="-7.38441" y1="50.5714" x2="22.9458" y2="-13.0015" gradientUnits="userSpaceOnUse">
<stop offset="0.197115" stop-color="#FF0000"/>
<stop offset="1" stop-color="#FFFF00"/>
</linearGradient>
<clipPath id="clip0_14_5586">
<rect width="29.5045" height="40.9129" fill="white"/>
</clipPath>
</defs>
</svg>
